<svg height="128" width="128" xmlns="http://www.w3.org/2000/svg" xmlns:xlink="http://www.w3.org/1999/xlink"><linearGradient id="a" x1="50.936%" x2="58.605%" y1="46.567%" y2="65.951%"><stop offset=".47" stop-color="#fff"/><stop offset=".99" stop-color="#cfd1d2"/><stop offset="1" stop-color="#ced0d1"/></linearGradient><mask id="b" fill="#fff"><path d="m0 .954h38.106v55.714h-38.106z" fill="#fff" fill-rule="evenodd"/></mask><g fill="none" fill-rule="evenodd"><path d="m0 128h128v-128h-128z" fill="none"/><path d="m122.804 91.045-43.301-25v-62.09l36.373 21 6.928 12z" fill="#e5e6e8"/><path d="m115.876 24.954v8l6.928 4zm6.928 12v54.091l5.196-3v-54.09z" fill="#3a485f"/><path d="m115.876 24.954 6.928 12 5.196-3-6.928-12z" fill="#697587"/><path d="m86.43 59.954 29.446 17v-4l-29.445-17zm10.48-37.951-10.48-6.049v4l10.48 6.05zm-10.48 29.951 29.446 17v-4l-29.445-17zm0-28v4l29.446 17v-4zm0 12 29.446 17v-4l-29.445-17zm0 8 29.446 17v-4l-29.445-17z" fill="#ced0d1"/><path d="m79.503 3.954 36.373 21 5.195-3-36.373-21z" fill="#fff"/><path d="m96.91 54-5.197 3v52l5.196-3z" fill="#3a485f"/><path d="m31.09 22 5.197-3 60.622 35-5.196 3z" fill="#fff"/><path d="m36.287 25-5.196-3v48l5.196 3zm55.426 32-5.196-3v48l5.196 3z" fill="#ced0d1"/><path d="m86.517 64v-10l-55.427-32v10zm5.196 45v-6l-60.623-35v6z" fill="#ced0d1"/><path d="m39.751 32c0-1.104-.775-2.448-1.731-3-.957-.552-1.733-.104-1.733 1s.776 2.448 1.733 3c.956.552 1.731.104 1.731-1m5.196 3c0-1.104-.775-2.448-1.73-3-.958-.552-1.734-.104-1.734 1s.776 2.448 1.733 3c.956.552 1.731.104 1.731-1m5.197 3c0-1.104-.775-2.448-1.732-3-.956-.552-1.732-.104-1.732 1s.776 2.448 1.732 3c.957.552 1.732.104 1.732-1" fill="#697587"/><path d="m86.517 100-50.23-29v-36l50.23 29z" fill="#fff"/><path d="m43.216 47-3.465-2v-4l3.465 2zm36.373 21-32.91-19v-4l32.91 19zm-36.373-13-3.465-2v-4l3.465 2zm32.908 19-29.444-17v-4l29.444 17zm-32.908-11-3.465-2v-4l3.465 2zm36.373 21-32.91-19v-4l32.91 19zm-36.373-13-3.465-2v-4l3.465 2zm15.588 9-12.124-7v-4l12.124 7z" fill="#e5e6e8"/><g stroke="#ff6f00" stroke-width="2"><path d="m43.902 27.008a40.713 40.713 0 0 1 3.358 2.17"/><path d="m52.08 33.136c9.59 8.928 16.98 22.396 19.091 35.071" stroke-dasharray="8.325 6.244"/><path d="m71.582 71.302a41 41 0 0 1 .2 3.994m-55.759-32.193c0-1.398.077-2.73.228-3.995"/><path d="m17.583 33.36c3.122-8.493 10.648-12.055 19.972-9.18" stroke-dasharray="7.876 5.907"/><path d="m40.33 25.206a33.903 33.903 0 0 1 3.572 1.801m0 64.385a40.897 40.897 0 0 1 -3.359-2.17"/><path d="m35.725 85.264c-9.59-8.928-16.98-22.396-19.091-35.07" stroke-dasharray="8.325 6.244"/><path d="m16.223 47.098a41 41 0 0 1 -.2-3.994m55.759 32.192c0 1.398-.077 2.73-.228 3.995"/><path d="m70.222 85.04c-3.122 8.492-10.648 12.054-19.972 9.18" stroke-dasharray="7.876 5.907"/><path d="m47.476 93.193a33.903 33.903 0 0 1 -3.573-1.8"/></g><path d="m52.902 59.2a9 9 0 0 0 -9-9 9 9 0 1 0 9 9" fill="#ff6f00"/><path d="m5.617 51.2v8l6.93-4v-8z" fill="#fff"/><path d="m18.62 99.306-6.929 4v8l2.598 4.5 9.526 5.5 9.527-5.5v-8z" fill="#425066"/><path d="m26.414 111.806v8l6.928-4v-8z" fill="#3a485f"/><path d="m11.691 103.306v8l2.598 4.5 9.526 5.5 2.6-1.5v-8z" fill="#425066"/><path d="m34.64 105.556-2.597 1.5-12.124-7-2.598-4.5v-16l17.32 10z" fill="#ced0d1"/><path d="m6.927 59.556c0 6.075 2.133 12.806 5.582 18.778l13.471 23.335 13.473-7.779c3.447-1.991 5.58-6.26 5.58-12.335 0-12.149-8.53-26.924-19.053-32.999-3.057-1.765-5.948-2.602-8.509-2.602-6.252-.001-10.544 4.983-10.544 13.602"/><path d="m.927 14.556c0 6.075 2.133 12.806 5.582 18.778l13.471 23.335 13.473-7.779c3.447-1.991 5.58-6.26 5.58-12.335 0-12.149-8.53-26.924-19.053-32.999-3.057-1.765-5.948-2.602-8.509-2.602-6.252-.001-10.544 4.983-10.544 13.602" fill="url(#a)" transform="translate(6 45)"/><path d="m27.713 109.556-2.6 1.5-12.123-7-2.597-4.5v-16l17.32 10z" fill="#e5e6e8"/><path d="m19.053 3.556c-10.523-6.075-19.053-1.15-19.053 11 0 6.075 2.133 12.806 5.58 18.778l13.473 23.334 13.472-7.778c3.448-1.99 5.58-6.259 5.58-12.334 0-12.15-8.53-26.925-19.052-33" fill="#e5e6e8" mask="url(#b)" transform="translate(0 49)"/><path d="m27.713 100.669v8.89l6.928-4v-8.89z" fill="#ced0d1"/></g></svg>